<svg width="512" height="512" viewBox="0 0 512 512" fill="none" xmlns="http://www.w3.org/2000/svg">
<rect width="512" height="512" rx="32" fill="white"/>
<path d="M171.099 399.884C171.099 402.596 172.45 404.397 175.613 404.848C178.775 405.298 181.036 403.947 182.387 403.036L182.838 396.712L177.414 396.262C173.351 395.361 171.54 397.162 171.089 399.874" fill="#1D1D1B"/>
<path d="M303.874 410.262C303.874 412.974 305.225 414.775 308.387 415.225C311.55 415.675 313.811 414.325 315.162 413.414L315.613 407.089L310.189 406.639C306.126 405.738 304.314 407.54 303.864 410.252" fill="#1D1D1B"/>
<path d="M321.487 70.1987C322.387 66.1358 322.387 56.1987 317.424 31.8113C307.487 41.2981 301.613 48.5232 298.46 53.0365C290.335 49.8742 280.848 47.6126 270.46 47.6126C260.974 47.6126 251.947 49.4239 244.262 52.1258C237.036 41.2881 224.387 30 224.387 30C219.424 38.5761 219.424 54.8377 219.874 65.2252L326.01 80.1258C325.109 76.5132 323.748 73.351 321.497 70.1887" fill="#1D1D1B"/>
<path d="M405.947 428.335C402.335 429.686 397.821 430.146 393.748 430.146C392.848 429.245 391.937 427.434 391.937 426.083C388.775 427.894 383.811 429.245 378.387 429.245C368.45 428.345 365.738 424.282 366.189 414.795L367.54 396.282C365.728 395.381 364.377 394.47 363.477 393.119L364.828 387.245C368.891 386.795 375.215 386.795 379.728 387.696L377.917 412.984C377.467 418.858 379.268 420.209 382.881 420.659C385.593 420.659 389.205 420.209 391.006 418.848L392.818 398.523C391.006 397.623 389.655 396.712 388.755 395.361L390.106 389.487C394.169 389.037 400.493 389.037 405.006 389.937L402.745 421.099C404.096 421.55 405.907 422 406.808 422.911L405.907 428.335H405.947ZM361.235 393.56L349.947 392.659L348.136 412.984C347.685 416.146 348.586 417.947 351.298 417.947C353.109 417.947 355.811 417.947 358.073 417.047L359.884 423.371C355.371 425.182 351.308 425.633 346.335 425.633C338.659 425.182 336.397 420.669 336.848 413.894L338.659 391.308H335.046L334.596 386.345C335.947 384.994 338.209 384.083 340.02 383.633C340.921 380.47 342.282 376.858 345.444 375.057L351.318 375.507L350.417 385.444L361.706 386.345L361.255 393.57L361.235 393.56ZM330.073 422.911C330.073 422.911 326.01 424.722 318.335 423.811C318.335 423.811 317.884 421.55 317.434 418.848C316.083 420.659 312.47 423.361 304.785 422.911C298.01 422.46 292.136 417.947 292.586 410.262C293.036 403.487 298.01 399.424 307.487 399.874L316.063 400.775L316.513 397.162C316.964 393.099 314.702 390.838 310.189 390.387H306.126C306.126 392.199 305.225 394.45 304.775 395.351L297.099 394.901C296.199 392.639 295.748 389.027 296.649 384.964C300.712 383.152 307.487 381.801 313.811 382.252C323.748 383.152 328.712 387.215 327.811 397.152L326 414.315C327.351 414.765 329.162 415.215 330.063 416.126V422.901L330.073 422.911ZM283.56 411.172C286.272 412.073 288.984 413.434 290.335 415.235L288.984 421.109L276.335 420.209L263.685 398.533L273.172 387.696C272.272 387.245 271.821 386.345 271.361 385.884L272.712 380.01L290.325 381.361L290.775 387.686C289.424 389.037 286.712 389.947 284 390.848L275.874 398.974L283.55 411.172H283.56ZM265.046 419.298L246.533 417.947V411.623C247.434 410.722 249.245 409.811 251.046 409.361L254.209 370.523C252.397 369.623 251.046 368.712 250.146 367.361L251.497 361.487C255.56 361.037 261.884 361.037 266.397 361.937L262.785 410.262C264.596 411.162 265.947 412.073 266.848 413.424L265.036 419.298H265.046ZM243.821 415.686C240.209 417.037 235.695 417.497 231.623 417.497C230.722 416.596 229.811 414.785 229.811 413.434C226.649 415.245 221.685 416.596 216.262 416.596C206.325 415.696 203.613 411.633 204.063 402.146L205.414 383.633C203.603 382.732 202.252 381.821 201.351 380.47L202.702 374.596C206.765 374.146 213.089 374.146 217.603 375.047L215.791 400.335C215.341 406.209 217.142 407.56 220.755 408.01C223.467 408.01 227.079 407.56 228.881 406.199L230.692 385.874C228.881 384.974 227.53 384.063 226.629 382.712L227.98 376.838C232.043 376.387 238.367 376.387 242.881 377.288L240.619 408.45C241.97 408.901 243.781 409.351 244.682 410.262L243.781 415.686H243.821ZM197.308 412.523C197.308 412.523 193.245 414.335 185.57 413.424C185.57 413.424 185.119 411.162 184.669 408.46C183.318 410.272 179.706 412.974 172.02 412.523C165.245 412.073 159.371 407.56 159.821 399.874C160.272 393.099 165.245 389.037 174.722 389.487L183.298 390.387L183.748 386.775C184.199 382.712 181.937 380.45 177.424 380H173.361C173.361 381.811 172.46 384.063 172.01 384.964L164.335 384.513C163.434 382.252 162.984 378.639 163.884 374.576C167.947 372.765 174.722 371.414 181.046 371.864C190.984 372.765 195.947 376.828 195.046 386.765L193.695 403.927C195.046 404.377 196.858 404.828 197.758 405.738L197.308 412.513V412.523ZM155.308 410.712L136.795 409.361L136.345 403.037C137.245 402.136 139.056 401.225 140.858 400.775L144.02 361.937C142.209 361.037 140.858 360.126 139.957 358.775L141.308 352.901C145.371 352.45 151.695 352.45 156.209 353.351L152.596 401.676C154.407 402.576 155.758 403.487 156.659 404.838L155.308 410.712ZM419.947 100.45L319.685 86.4504C320.136 88.712 320.586 90.9636 320.586 93.2252C320.586 111.738 302.073 127.099 277.685 131.162C282.649 154.649 288.974 181.288 293.036 206.586C298 200.712 303.424 195.298 307.937 189.874C297.099 181.298 291.675 168.649 296.199 159.162C298.46 154.199 302.523 151.037 307.937 148.775C308.838 146.063 311.55 139.738 321.036 128.45C325.55 140.189 327.361 145.162 327.361 147.414C330.974 148.315 335.036 149.225 338.649 151.027C343.613 153.288 347.685 155.99 351.298 159.152C354.46 156.891 359.874 153.278 369.361 147.864C368.46 159.603 364.397 168.189 361.235 173.603C363.046 178.566 363.046 183.54 360.785 188.053C355.361 199.791 338.199 203.404 321.046 197.089C314.272 219.676 306.146 247.215 295.758 267.99C302.533 269.341 309.308 270.702 315.633 272.053C315.633 270.242 316.083 268.44 316.984 266.629C318.795 262.566 322.407 259.854 327.371 258.503C328.722 255.341 330.984 250.828 333.695 247.215C336.858 253.089 337.758 256.702 338.209 258.503C341.371 258.954 344.533 259.854 347.696 261.215C352.209 263.477 356.272 266.179 359.434 269.791C360.785 268.891 364.397 267.53 370.722 265.728C369.371 272.053 366.659 277.927 364.848 281.079C364.848 283.341 364.848 285.593 363.947 287.854C360.785 295.079 351.298 297.791 341.361 295.98C326.01 305.917 265.036 301.404 265.036 301.404C255.099 300.954 248.325 297.341 243.361 290.566C240.199 287.854 237.036 283.341 234.325 278.367C231.613 277.016 227.099 275.656 219.874 275.656C203.613 275.656 179.225 291.006 160.712 291.006C142.199 291.006 115.099 260.295 115.099 230.033C115.099 199.771 147.613 173.583 184.199 173.583C204.073 173.583 201.811 183.52 201.811 186.682C201.811 191.195 203.162 195.258 180.586 195.258C180.586 195.258 129.099 200.222 129.099 234.546C129.099 257.132 149.874 272.483 158 272.483C169.738 272.483 195.036 255.321 224.387 254.42C221.675 247.195 219.424 239.97 217.162 233.195C206.775 239.069 195.487 238.619 190.513 231.384C188.252 228.222 187.801 223.708 189.162 219.646C186.901 218.295 183.288 214.682 181.937 206.096C187.361 207.447 191.424 208.808 194.136 210.159C195.947 207.897 198.199 205.646 200.911 203.834C203.623 202.023 205.874 200.672 208.586 199.771C208.586 197.51 208.586 193.897 209.937 188.033C215.361 192.546 218.063 196.159 219.424 198.42C223.937 198.871 228 200.682 230.262 204.295C234.775 210.619 232.073 220.556 224.387 227.781C227.55 231.394 231.162 235.006 234.775 239.069C236.586 205.646 246.063 165.006 253.288 131.132C227.55 127.52 208.576 111.708 208.576 92.7449C208.576 86.4204 210.838 80.0958 214.901 74.682C214.901 73.7813 214.901 72.4204 214.45 71.0694L160.712 64.2946L46 299.623L115.55 366.46L116.901 321.298L433.937 360.586L123.225 331.235L114.189 425.623L184.189 432.848L234.775 481.623L295.748 449.109L189.162 433.298L303.424 444.586L422.199 456.785L430.324 377.298L466 358.335L419.937 100.46L419.947 100.45Z" fill="#1D1D1B"/>
</svg>
